<svg id="Layer_1" data-name="Layer 1" xmlns="http://www.w3.org/2000/svg" viewBox="0 0 1920 1080"><defs><style>.cls-1{font-size:247px;fill:#333;font-family:ScriptMTBold, Script MT Bold;}.cls-2,.cls-3,.cls-4{fill:none;stroke:#ec105a;stroke-linecap:round;stroke-miterlimit:10;}.cls-2{stroke-width:26px;}.cls-3{stroke-width:9px;}.cls-4{stroke-width:19px;}</style></defs><title>Artboard 1</title><text class="cls-1" transform="translate(580 679.91)">end</text><text class="cls-1" transform="translate(1074 679.91)">buy</text><path class="cls-2" d="M572,509.43,548.43,661.9c-1.3,8.38-5.16,14.1-9.54,14.1H461.27c-4.38,0-8.24-5.72-9.54-14.1L430.34,523.54c-1.3-8.39-5.16-14.11-9.54-14.11H397.53"/><line class="cls-3" x1="982.72" y1="670" x2="1016.45" y2="670"/><line class="cls-3" x1="982.72" y1="643.29" x2="1016.45" y2="643.29"/><line class="cls-3" x1="982.72" y1="619.42" x2="1016.45" y2="619.42"/><path class="cls-4" d="M1042,670l-14.11-80.92c-.78-4.45-3.09-7.48-5.72-7.48H975.7c-2.62,0-4.94,3-5.72,7.48l-12.8,73.43c-.78,4.46-3.1,7.49-5.72,7.49H937.53"/></svg>